<svg width="128" height="128" viewBox="0 0 128 128" xmlns="http://www.w3.org/2000/svg">
  <!-- Background circle -->
  <defs>
    <radialGradient id="bgGradient" cx="50%" cy="50%" r="50%">
      <stop offset="0%" style="stop-color:#2563eb;stop-opacity:1" />
      <stop offset="100%" style="stop-color:#1e40af;stop-opacity:1" />
    </radialGradient>
    <linearGradient id="pixelGradient" x1="0%" y1="0%" x2="100%" y2="100%">
      <stop offset="0%" style="stop-color:#fbbf24;stop-opacity:1" />
      <stop offset="50%" style="stop-color:#f59e0b;stop-opacity:1" />
      <stop offset="100%" style="stop-color:#d97706;stop-opacity:1" />
    </linearGradient>
  </defs>
  
  <!-- Background -->
  <circle cx="64" cy="64" r="62" fill="url(#bgGradient)"/>
  
  <!-- Shadow of main pixel -->
  <rect x="57" y="57" width="19" height="19" fill="rgba(0,0,0,0.3)"/>
  
  <!-- Main pixel -->
  <rect x="54.5" y="54.5" width="19" height="19" fill="url(#pixelGradient)"/>
  
  <!-- Highlight on main pixel -->
  <rect x="54.5" y="54.5" width="9.5" height="9.5" fill="rgba(255,255,255,0.4)"/>
  
  <!-- Surrounding pixels -->
  <rect x="30" y="30" width="11" height="11" fill="rgba(255,255,255,0.3)"/>
  <rect x="30" y="30" width="5.5" height="5.5" fill="rgba(255,255,255,0.2)"/>
  
  <rect x="79" y="30" width="11" height="11" fill="rgba(255,255,255,0.3)"/>
  <rect x="79" y="30" width="5.5" height="5.5" fill="rgba(255,255,255,0.2)"/>
  
  <rect x="30" y="79" width="11" height="11" fill="rgba(255,255,255,0.3)"/>
  <rect x="30" y="79" width="5.5" height="5.5" fill="rgba(255,255,255,0.2)"/>
  
  <rect x="79" y="79" width="11" height="11" fill="rgba(255,255,255,0.3)"/>
  <rect x="79" y="79" width="5.5" height="5.5" fill="rgba(255,255,255,0.2)"/>
  
  <!-- Push arrow -->
  <polygon points="84,58 94,64 84,70 87,64" fill="rgba(255,255,255,0.8)"/>
</svg>